<svg xmlns="http://www.w3.org/2000/svg" id="Layer_2" viewBox="0 0 1044.2 227.03"><defs><style>.cls-1{fill:#333;}.cls-2{fill:#4d61ff;}</style></defs><g id="Layer_1-2"><g><g><path class="cls-1" d="M278.23,49.21c-13.83,0-26.55,2.7-37.81,8.03-11.24,5.32-20.29,13.06-26.87,23.01-6.59,9.94-9.93,21.68-9.93,34.87s3.34,25.12,9.93,35.06c6.59,9.95,15.67,17.7,26.97,23.01,11.32,5.32,24.07,8.02,37.9,8.02s25.33-2.13,36.03-6.33l.95-.37v-21.93l-2.09,.89c-11.71,5-23.64,7.53-35.45,7.53-9.55,0-18.35-1.85-26.15-5.51-7.84-3.67-14.14-9.03-18.73-15.93-4.6-6.89-6.94-15.12-6.94-24.45s2.33-17.34,6.94-24.18c4.59-6.83,10.92-12.15,18.82-15.83,7.88-3.65,16.71-5.51,26.25-5.51,13.68,0,25.51,2.49,35.17,7.39l2.18,1.11v-21.8l-.98-.36c-12.08-4.46-24.25-6.73-36.19-6.73Z"></path><path class="cls-1" d="M415.63,110.09c-7.09-2.5-16.18-4.96-26.99-7.31-7.61-1.71-13.64-3.24-17.94-4.55-4.31-1.31-7.95-3.09-10.8-5.27-2.95-2.24-4.45-5.14-4.45-8.62,0-4.36,2.48-7.96,7.37-10.69,4.87-2.72,12.8-4.04,24.24-4.04,7.28,0,15.17,.69,23.44,2.05,6.95,1.14,13.02,2.62,18.03,4.4l2,.71v-21.95l-1.03-.34c-4.91-1.62-10.88-2.89-17.75-3.78-7.56-.98-14.87-1.48-21.72-1.48-13.46,0-24.53,1.8-32.91,5.34-8.34,3.53-14.41,8.15-18.06,13.73-3.64,5.58-5.49,11.8-5.49,18.47,0,8.24,2.45,14.93,7.29,19.88,4.86,4.99,10.85,8.82,17.81,11.39,7.03,2.59,15.99,5.08,26.62,7.4,7.66,1.74,13.83,3.33,18.31,4.74,4.55,1.43,8.35,3.36,11.27,5.73,3,2.43,4.53,5.55,4.53,9.26,0,4.48-2.7,8.3-8.01,11.34-5.32,3.03-14.44,4.51-27.86,4.51-8.89,0-18.18-1-27.62-2.97-8.22-1.72-15.63-4.18-22.03-7.3l-2.16-1.05v21.89l.85,.41c6.01,2.91,13.3,5.17,21.67,6.73,8.88,1.66,17.68,2.49,26.15,2.49,20.44,0,35.88-3.59,45.9-10.67,10.1-7.14,15-16.42,15-28.35,0-8.49-2.52-15.4-7.47-20.53-4.99-5.18-11.11-9.07-18.18-11.56Z"></path><path class="cls-1" d="M546.61,51.07v77.22c0,6.37-1.55,12.1-4.61,17.02-3.06,4.93-7.3,8.82-12.6,11.57-5.3,2.74-11.27,4.13-17.74,4.13s-12.59-1.39-17.82-4.13c-5.25-2.75-9.46-6.64-12.51-11.57-3.06-4.92-4.61-10.65-4.61-17.02V51.07h-20.95V127.18c0,10.26,2.47,19.63,7.35,27.85,4.87,8.23,11.64,14.72,20.12,19.29,8.49,4.58,18.05,6.9,28.42,6.9s20.12-2.32,28.61-6.9c8.47-4.57,15.21-11.03,20.03-19.2,4.82-8.18,7.26-17.58,7.26-27.94V51.07h-20.95Z"></path></g><g><path class="cls-2" d="M151.96,54.03c-15.06-16.19-35.49-26.02-57.53-27.7-.67,.8-1.33,1.61-1.97,2.42-4.55,5.8-8.24,11.74-10.97,17.67,2.31-.23,4.35-.34,6.22-.34,37.32,0,67.69,30.36,67.69,67.69,0,18.71-7.89,36.78-21.66,49.56l-.77,.72,.1-1.05c.24-2.48,.36-4.98,.36-7.41,0-24.78-11.56-48.62-34.36-70.88l-.58-.56-13.99,14.33,.58,.56c18.79,18.35,28.32,37.38,28.32,56.55,0,7.54-1.52,15.2-4.53,22.76-2.84,7.14-7.06,14.32-12.57,21.34-3.34,4.25-7.12,8.44-11.22,12.45l-.58,.56,13.99,14.33,.58-.56c10.77-10.51,19.13-21.53,24.84-32.74l.06-.12,.13-.06c31.18-14.28,51.33-45.59,51.33-79.78,0-22.25-8.34-43.46-23.47-59.74Z"></path><path class="cls-2" d="M87.72,180.95c-37.32,0-67.69-30.36-67.69-67.69,0-18.71,7.89-36.78,21.66-49.56l.77-.72-.1,1.05c-.24,2.48-.36,4.98-.36,7.41,0,24.78,11.56,48.62,34.36,70.88l.58,.56,13.99-14.33-.58-.56c-18.79-18.35-28.32-37.38-28.32-56.55,0-7.54,1.52-15.2,4.53-22.76,2.84-7.14,7.06-14.32,12.57-21.34,3.34-4.25,7.12-8.44,11.22-12.45l.58-.56L76.94,0l-.58,.56c-10.77,10.51-19.13,21.53-24.84,32.74l-.06,.12-.13,.06C20.15,47.76,0,79.08,0,113.27c0,22.25,8.34,43.46,23.47,59.74,15.06,16.19,35.49,26.02,57.53,27.7,.67-.8,1.33-1.61,1.97-2.42,4.55-5.8,8.24-11.74,10.97-17.67-2.31,.23-4.35,.34-6.22,.34Z"></path></g><g><path class="cls-1" d="M596.71,51.12h34.34c13.39,0,24.9,2.62,34.52,7.85,9.62,5.24,16.99,12.67,22.1,22.28,5.11,9.62,7.67,20.89,7.67,33.79s-2.56,24.17-7.67,33.79c-5.11,9.62-12.48,17.05-22.1,22.28-9.62,5.24-21.13,7.85-34.52,7.85h-34.34V51.12Zm34.34,118.72c17.17,0,30.5-4.9,40-14.7,9.5-9.8,14.25-23.17,14.25-40.09s-4.72-30.44-14.16-40.18c-9.44-9.74-22.8-14.61-40.09-14.61h-24.48v109.59h24.48Z"></path><path class="cls-1" d="M724.2,54.23c1.22,1.22,1.83,2.8,1.83,4.75s-.61,3.53-1.83,4.75c-1.22,1.22-2.8,1.83-4.75,1.83-1.83,0-3.38-.61-4.66-1.83-1.28-1.22-1.92-2.8-1.92-4.75s.64-3.53,1.92-4.75c1.28-1.22,2.83-1.83,4.66-1.83,1.95,0,3.53,.61,4.75,1.83Zm-9.32,32.15h9.32v92.6h-9.32V86.37Z"></path><path class="cls-1" d="M831.41,86.37v86.94c0,14.61-3.59,25.48-10.78,32.6-7.19,7.12-18.27,10.69-33.24,10.69-11.45,0-20.82-2.62-28.13-7.85-7.31-5.24-11.69-12.73-13.15-22.47h9.68c1.46,6.94,5.02,12.33,10.69,16.16,5.66,3.84,12.88,5.75,21.64,5.75,11.44,0,19.97-2.83,25.57-8.49,5.6-5.66,8.4-14.58,8.4-26.76v-16.26c-3.04,7.31-7.58,13.03-13.61,17.17-6.03,4.14-13.31,6.21-21.83,6.21s-15.92-1.95-22.56-5.84c-6.64-3.9-11.81-9.41-15.53-16.53-3.72-7.12-5.57-15.49-5.57-25.11s1.85-17.47,5.57-24.66c3.71-7.18,8.89-12.75,15.53-16.71,6.64-3.96,14.16-5.94,22.56-5.94s15.65,2.01,21.74,6.03c6.09,4.02,10.59,9.56,13.52,16.62l1.46-21.55h8.04Zm-25.85,80.37c5.3-3.29,9.41-7.88,12.33-13.79,2.92-5.9,4.38-12.63,4.38-20.18s-1.46-14.49-4.38-20.46c-2.92-5.96-7.03-10.59-12.33-13.88-5.3-3.29-11.36-4.93-18.17-4.93s-12.88,1.64-18.17,4.93c-5.3,3.29-9.41,7.92-12.33,13.88-2.92,5.97-4.38,12.73-4.38,20.27s1.46,14.31,4.38,20.27c2.92,5.97,7.03,10.59,12.33,13.88s11.35,4.93,18.17,4.93,12.88-1.64,18.17-4.93Z"></path><path class="cls-1" d="M862.65,54.23c1.22,1.22,1.83,2.8,1.83,4.75s-.61,3.53-1.83,4.75c-1.22,1.22-2.8,1.83-4.75,1.83-1.83,0-3.38-.61-4.66-1.83-1.28-1.22-1.92-2.8-1.92-4.75s.64-3.53,1.92-4.75c1.28-1.22,2.83-1.83,4.66-1.83,1.95,0,3.53,.61,4.75,1.83Zm-9.32,32.15h9.32v92.6h-9.32V86.37Z"></path><path class="cls-1" d="M890.77,94.96h-17.53v-8.58h17.53v-25.94h9.32v25.94h24.66v8.58h-24.66v62.28c0,4.75,.97,8.13,2.92,10.14,1.95,2.01,5.23,3.01,9.86,3.01h13.52v8.58h-13.88c-7.79,0-13.37-1.7-16.71-5.11-3.35-3.41-5.02-8.89-5.02-16.44v-62.47Z"></path><path class="cls-1" d="M1022.47,170.39v8.58h-5.48c-5.36,0-9.29-1.34-11.78-4.02-2.5-2.68-3.62-6.45-3.38-11.32v-3.84c-2.8,6.21-7.19,11.14-13.15,14.79-5.97,3.65-13.4,5.48-22.28,5.48-9.99,0-17.96-2.37-23.93-7.12-5.97-4.75-8.95-11.2-8.95-19.36,0-8.77,3.13-15.55,9.41-20.37,6.27-4.81,15.31-7.21,27.12-7.21h31.42v-8.04c0-7.67-2.41-13.67-7.21-17.99-4.81-4.32-11.54-6.48-20.18-6.48-7.67,0-13.91,1.71-18.72,5.11-4.81,3.41-7.83,7.98-9.04,13.7h-9.32c1.22-8.4,5.11-15.01,11.69-19.82,6.58-4.81,15.16-7.21,25.75-7.21,11.57,0,20.52,2.86,26.85,8.58,6.33,5.72,9.5,13.88,9.5,24.48v43.11c0,2.8,.73,4.99,2.19,6.58,1.46,1.58,3.47,2.37,6.03,2.37h3.47Zm-21.01-36.35h-32.15c-8.52,0-15.04,1.64-19.54,4.93-4.51,3.29-6.76,7.98-6.76,14.06,0,5.72,2.16,10.32,6.48,13.79,4.32,3.47,10.14,5.21,17.44,5.21,10.71,0,19.15-2.83,25.3-8.49,6.15-5.66,9.22-13,9.22-22.01v-7.49Z"></path><path class="cls-1" d="M1034.89,51.12h9.32v127.86h-9.32V51.12Z"></path></g></g></g></svg>